<?xml version="1.0" encoding="UTF-8"?>
<svg version="1.1" xmlns="http://www.w3.org/2000/svg" width="840" height="840">
<path d="M0 0 C0.85207031 0.18191895 1.70414063 0.36383789 2.58203125 0.55126953 C28.20319009 6.19498542 53.04509728 17.18137069 74 33 C74.56187012 33.42200684 75.12374023 33.84401367 75.70263672 34.27880859 C92.00871197 46.55467627 92.00871197 46.55467627 96.1875 51.5625 C98.7363524 54.563477 101.36091003 57.46729723 104.05859375 60.33544922 C109.26142249 65.89253561 113.88399283 71.58556827 118 78 C118.63421875 78.97324219 119.2684375 79.94648438 119.921875 80.94921875 C131.32192328 98.91092273 139.84312239 118.35522804 145 139 C145.19899902 139.77085937 145.39799805 140.54171875 145.60302734 141.3359375 C150.58362088 161.50305827 149.38490695 182.39119382 149 203 C149.68344482 203.12479736 150.36688965 203.24959473 151.07104492 203.37817383 C151.96927979 203.54857178 152.86751465 203.71896973 153.79296875 203.89453125 C155.12751099 204.14360229 155.12751099 204.14360229 156.48901367 204.39770508 C162.33719215 205.80047185 165.76421664 209.37397692 168.96484375 214.2109375 C171.76407021 219.04884588 172.5040096 223.45589439 172 229 C170.34860695 232.5386994 169.28394771 233.81070153 166 236 C159.83840844 235.66991474 159.83840844 235.66991474 157.38671875 233.7109375 C155.83910054 231.8014818 155.11048062 230.13044371 154.3125 227.8125 C154.06113281 227.09707031 153.80976562 226.38164062 153.55078125 225.64453125 C153.27814453 224.83048828 153.27814453 224.83048828 153 224 C150.69 223.67 148.38 223.34 146 223 C145.73896484 223.81452637 145.47792969 224.62905273 145.20898438 225.46826172 C137.12213948 250.5679305 127.66843827 273.54097864 113.6875 296 C106.10101552 308.1903793 100.13613927 319.72407757 102.625 334.375 C104.96320336 344.02843961 111.64045882 352.58922943 119.5625 358.3125 C120.51253906 359.00988281 121.46257813 359.70726562 122.44140625 360.42578125 C124.92516954 362.26201244 124.92516954 362.26201244 128 362 C129.3851371 360.34459224 130.76689801 358.68620768 132.12890625 357.01171875 C136.14325648 352.6956637 141.35512004 348.98843839 146.87963867 346.92382812 C151.18937864 344.26670028 152.44232841 341.15645163 154.48828125 336.640625 C155.07128242 335.40672028 155.07128242 335.40672028 155.6660614 334.14788818 C156.48231573 332.41036098 157.28949983 330.66854745 158.08813477 328.92285156 C159.30629269 326.26355087 160.55375721 323.61965186 161.80664062 320.9765625 C162.59812755 319.28207721 163.38789852 317.58678913 164.17578125 315.890625 C164.54552567 315.10496155 164.91527008 314.3192981 165.29621887 313.50982666 C167.34275602 309.00428325 168.67857145 305.00843409 169 300 C168.67 299.21625 168.34 298.4325 168 297.625 C166.16025464 292.79566843 167.09032497 288.18254122 169.046875 283.48828125 C172.63399182 276.61297401 172.63399182 276.61297401 177 275 C177.99 275 178.98 275 180 275 C180.16000488 274.47575439 180.32000977 273.95150879 180.48486328 273.41137695 C182.49023236 267.10101108 185.07327806 261.18050421 187.875 255.1875 C188.35622314 254.14835449 188.83744629 253.10920898 189.33325195 252.03857422 C190.36118571 249.82047948 191.39126872 247.60337969 192.42333984 245.38720703 C193.97138854 242.06146722 195.512112 238.73243196 197.05078125 235.40234375 C200.051928 228.91267648 203.06801505 222.43003176 206.09057617 215.95031738 C207.03182876 213.93174119 207.97200122 211.91266409 208.91210938 209.89355469 C216.42539487 193.7656836 224.05561935 177.71667457 232.06884766 161.83056641 C235.57040616 154.88436096 238.98539519 147.90630248 242.3125 140.875 C247.08199934 130.8115297 252.02443232 120.83768051 257 110.875 C257.37557037 110.12136169 257.75114075 109.36772339 258.13809204 108.59124756 C259.21473626 106.43205566 260.29433236 104.27436802 261.375 102.1171875 C261.69643478 101.47233398 262.01786957 100.82748047 262.3490448 100.16308594 C267.75709691 89.40215044 267.75709691 89.40215044 271 87 C274.1875 86.3125 274.1875 86.3125 277 86 C277.11859375 85.278125 277.2371875 84.55625 277.359375 83.8125 C279.243162 75.5422156 283.68501995 69.05205906 290.5625 64.1875 C296.91351635 61.99351253 304.06999308 61.76205837 310.3125 64.5 C315.88246863 67.79081654 319.88913006 72.50054263 322.5 78.375 C323.70025675 87.07686144 321.60894423 94.11068006 318 102 C318.86625 102.38285156 318.86625 102.38285156 319.75 102.7734375 C326.50673545 106.45679676 331.34981403 112.87294621 334 120 C337.03450515 130.34833119 334.34623388 139.29160569 330.25 148.875 C329.49038782 150.72658549 328.73080203 152.57818221 327.97259521 154.43034363 C327.18246267 156.35209548 326.38318785 158.26983249 325.58203125 160.18701172 C323.56305788 165.03227064 321.63241204 169.9120303 319.69726562 174.79125977 C313.22085303 191.10793017 306.61292289 207.37294744 299.99435425 223.63235474 C297.90746858 228.76099832 295.83086619 233.89369503 293.75976562 239.0287323 C292.31920989 242.59619812 290.87225143 246.16104493 289.4239502 249.72537231 C288.73243908 251.43091329 288.04349407 253.13749727 287.3572998 254.84518433 C286.3988485 257.22912388 285.43095907 259.60903046 284.4609375 261.98828125 C284.18440338 262.68255219 283.90786926 263.37682312 283.62295532 264.09213257 C278.40127448 276.79936276 278.40127448 276.79936276 274 279 C269.94038698 279.55358359 268.22248019 279.12772011 264.625 277.0625 C262.11573134 274.66683996 261.995144 273.96803131 261.4375 270.296875 C261.66108282 263.55483673 264.71156143 257.53430395 267.38009644 251.4546814 C268.76123826 248.30734213 270.1059474 245.14478856 271.45414734 241.98323059 C272.17695572 240.28970308 272.9016956 238.5969988 273.62825012 236.90507507 C277.46290819 227.96738453 281.1414667 218.96767588 284.80853271 209.96020508 C286.69541021 205.32609843 288.58837734 200.69447964 290.48046875 196.0625 C290.85423645 195.14698364 291.22800415 194.23146729 291.61309814 193.28820801 C294.23113692 186.87674792 296.8571958 180.46861638 299.48828125 174.0625 C299.84989853 173.18193436 300.21151581 172.30136871 300.58409119 171.39411926 C301.96867732 168.02297091 303.35342007 164.65188778 304.73947144 161.28134155 C305.05610748 160.5113382 305.37274353 159.74133484 305.69897461 158.94799805 C306.16266701 157.82044853 306.16266701 157.82044853 306.63572693 156.67012024 C307.52462449 154.50345384 308.408058 152.3346198 309.29101562 150.16552734 C310.44026459 147.34663191 311.61920196 144.54263602 312.81835938 141.74462891 C313.38416145 140.39878272 313.94991873 139.05291771 314.515625 137.70703125 C315.01868164 136.53245361 315.52173828 135.35787598 316.04003906 134.14770508 C317.05078572 130.83347398 317.14465033 129.23589354 316 126 C315.34 125.34 314.68 124.68 314 124 C313.01 124 312.02 124 311 124 C305.86007409 137.31991966 300.74370562 150.648067 295.6875 164 C289.74532194 179.68395758 283.78232904 195.3597259 277.76306152 211.01428223 C277.03916206 212.89808843 276.31689745 214.78252264 275.59472656 216.66699219 C270.18617993 230.75133751 264.50325669 244.69592096 258.5625 258.5625 C258.08879974 259.6701622 258.08879974 259.6701622 257.60552979 260.80020142 C254.28538943 268.5524069 250.90499558 276.26725579 247.33984375 283.91015625 C246.76917262 285.14562393 246.19877179 286.3812165 245.62866211 287.61694336 C244.57658884 289.8830565 243.50694521 292.14113218 242.41625977 294.38891602 C239.77984303 300.0785042 238.52004813 303.90324902 239.69580078 310.11474609 C240.36075346 314.23574499 238.17075043 317.63925988 236 321 C233.28600689 324.13512997 230.46576774 325.83875133 226.52124023 327.2043457 C222.28087324 329.36671825 221.11654881 331.61226717 219.47265625 335.85546875 C219.05469032 336.84792351 219.05469032 336.84792351 218.62828064 337.86042786 C217.74987389 339.96072578 216.90603994 342.07299124 216.0625 344.1875 C215.47033369 345.62006642 214.8759543 347.05172016 214.27929688 348.48242188 C212.827041 351.97823932 211.40561005 355.48518217 210 359 C210.6194751 359.28359375 211.2389502 359.5671875 211.87719727 359.859375 C220.07474372 364.26408311 225.52129718 377.20420707 228.15625 385.75 C235.92781509 413.54046575 232.55494399 442.63714956 218.875 468.0625 C217.92687429 469.71423478 216.96943205 471.36067952 216 473 C215.20700701 474.39508026 214.41515808 475.79081213 213.625 477.1875 C213.08875 478.115625 212.5525 479.04375 212 480 C223.68919125 484.72063493 236.23707123 484.40416213 248.02734375 480.26953125 C252.67730845 478.28367247 256.84466357 475.86862023 261 473 C262.0725 472.29875 263.145 471.5975 264.25 470.875 C269.15443524 465.74763588 273.30910252 458.76773989 273.5 451.5 C273.01954368 447.39652866 273.01954368 447.39652866 271 444 C268.42079956 442.46476164 265.91072717 441.28120062 263.0390625 440.39453125 C257.37203856 438.60323058 254.38630397 435.86268563 251 431 C249.22262574 427.44525148 249.38459587 423.87342598 250 420 C253.4497953 411.96803384 259.87522401 407.05414575 267.8359375 403.86328125 C278.98657196 400.82094765 290.32428419 402.98655383 300.390625 408.25 C314.34077092 416.83470518 322.72591767 429.72700909 327 445.3125 C331.69716277 470.21053272 324.86407897 496.12426829 311 517 C302.24129095 529.39890442 292.41203665 539.20482127 280 548 C279.17113281 548.6084375 278.34226562 549.216875 277.48828125 549.84375 C259.40807064 562.3324355 236.08443761 568.20272401 214.375 568.1875 C213.3113623 568.18741943 212.24772461 568.18733887 211.15185547 568.18725586 C193.11291822 568.05645911 193.11291822 568.05645911 187 565 C187.16081055 565.57041016 187.32162109 566.14082031 187.48730469 566.72851562 C191.04918742 582.50935225 187.1246166 599.3912672 179 613 C168.70978613 628.36762203 153.53459847 637.61236357 135.640625 641.51171875 C125.03419904 643.47296615 115.52927719 643.39579206 105 641 C104.21367188 640.82855469 103.42734375 640.65710938 102.6171875 640.48046875 C95.67856015 638.6067976 89.63724123 634.16450434 85.765625 628.05078125 C83.92093196 623.10963917 84.45295033 617.67332841 86.0625 612.75 C91.04873943 605.67275694 96.64743003 603.07567245 104.84472656 600.64819336 C108.79687977 599.50532228 108.79687977 599.50532228 112 597 C112.16687448 594.41645782 112.16687448 594.41645782 112 592 C108.86391809 590.40976979 105.69422181 588.90736855 102.5 587.4375 C101.5615625 587.00308594 100.623125 586.56867187 99.65625 586.12109375 C94.9204764 584.12231871 90.15281649 582.99295526 85 584 C82.57725374 585.92655802 80.97163297 587.46947317 79.0625 589.8125 C78.5567041 590.39475342 78.0509082 590.97700684 77.52978516 591.5769043 C75.99110804 593.36265232 74.49028327 595.17374545 73 597 C72.54318848 597.55945313 72.08637695 598.11890625 71.61572266 598.6953125 C69.63546938 601.13073725 67.67105777 603.57433792 65.7421875 606.05078125 C65.16726563 606.69402344 64.59234375 607.33726562 64 608 C63.34 608 62.68 608 62 608 C61.690625 608.8353125 61.690625 608.8353125 61.375 609.6875 C59.44999226 612.92501302 56.96149098 614.68231141 54 617 C49.49262311 615.65996903 48.22965321 614.04737636 46 610 C44.58847656 610.52400391 44.58847656 610.52400391 43.1484375 611.05859375 C41.89072526 611.51850345 40.63290707 611.97812347 39.375 612.4375 C38.14523437 612.88996094 36.91546875 613.34242188 35.6484375 613.80859375 C22.57783508 618.07683116 8.62571841 616.76789878 -4.3515625 612.97265625 C-12.60652532 610.77192205 -18.72323308 611.17182237 -27 612.88671875 C-28.08026962 613.09975143 -29.16053925 613.31278412 -30.27354431 613.53227234 C-32.6196996 613.99627184 -34.96475699 614.46584999 -37.30880737 614.94036865 C-43.0158889 616.09553446 -48.72944996 617.21765597 -54.44233513 618.34370422 C-56.46118139 618.74218447 -58.47970938 619.1422454 -60.4981842 619.54260254 C-75.27405064 622.46953566 -90.07972986 625.23472381 -104.88781738 627.99313736 C-114.39595596 629.76453498 -123.90290273 631.54220887 -133.4083252 633.328125 C-137.03966217 634.00741938 -140.67258991 634.6777225 -144.30566406 635.34765625 C-146.6244071 635.78093895 -148.94309452 636.21451946 -151.26171875 636.6484375 C-152.30343735 636.83804047 -153.34515594 637.02764343 -154.41844177 637.22299194 C-162.17517438 638.68684344 -169.45892485 640.89709907 -176.8046875 643.765625 C-187.48043782 647.88975348 -197.46234967 646.05876006 -208 642 C-211.7851675 639.909499 -214.77555681 637.36273324 -217.66015625 634.15234375 C-223.67465643 627.50334685 -230.83062382 624.13001795 -238.7265625 620.16210938 C-242.32609435 618.32214249 -245.84957795 616.35232124 -249.375 614.375 C-250.87884351 613.53504391 -252.38275279 612.69520558 -253.88671875 611.85546875 C-255.09593994 611.17943604 -255.09593994 611.17943604 -256.32958984 610.48974609 C-259.32748896 608.81730319 -262.32944992 607.15230314 -265.33203125 605.48828125 C-277.2146581 598.90166625 -289.08551737 592.29652185 -300.89331055 585.57641602 C-305.29835487 583.07285205 -309.71412345 580.60180184 -314.18359375 578.21484375 C-315.40647095 577.55609253 -315.40647095 577.55609253 -316.65405273 576.8840332 C-318.14922317 576.08159862 -319.64957942 575.28870127 -321.15649414 574.50854492 C-326.62524239 571.56150821 -332.21462032 567.91525376 -334.87304688 562.08544922 C-335.46130394 560.10528087 -335.88111277 558.15693956 -336.25 556.125 C-336.57105724 554.71471675 -336.89266823 553.30455945 -337.21484375 551.89453125 C-337.66657896 549.65383471 -338.07903679 547.40274258 -338.37890625 545.13671875 C-338.87482383 542.47842182 -339.24120853 541.07352258 -341 539 C-344.65093515 537.34538899 -348.29315136 536.2379523 -352.14453125 535.16015625 C-366.41688604 531.10665466 -378.25035199 519.17132218 -386 507 C-393.01284879 494.32427582 -396.74729789 479.92302706 -392.75 465.625 C-388.77537519 454.29546199 -383.37548106 447.67447794 -373.5234375 440.83203125 C-371.44326521 439.32181329 -369.7760844 437.83326282 -368 436 C-368.29245605 434.97640381 -368.58491211 433.95280762 -368.88623047 432.89819336 C-376.85498047 405.00756836 -376.85498047 405.00756836 -377.43435669 402.97480774 C-377.8131025 401.65250773 -378.19535779 400.33120816 -378.58102417 399.01091003 C-380.41343808 392.71341234 -381.31967749 387.63935497 -378.3125 381.625 C-375.43022406 378.35322731 -373.37269191 376.36817633 -368.9609375 375.68359375 C-364.56833114 375.44962331 -361.60443801 375.97554969 -357.75 378.125 C-354.82454201 379.80798082 -354.82454201 379.80798082 -351.5 379.625 C-349.05114583 378.11257813 -349.05114583 378.11257813 -347.234375 376.48046875 C-342.03533781 372.1104119 -342.03533781 372.1104119 -338.765625 371.76171875 C-336.43787919 372.0065334 -334.26954066 372.42966483 -332 373 C-331.22527344 373.17660156 -330.45054687 373.35320312 -329.65234375 373.53515625 C-327.75891537 373.98597253 -325.87777501 374.48787954 -324 375 C-321.62399056 364.27850284 -320.13975072 351.83684701 -326 342 C-328.64397889 338.95942428 -330.17116342 337.27627886 -334 336 C-338.11178021 335.7977813 -341.09580421 335.6986014 -345 337 C-350.01795166 338.67265055 -354.20134707 338.63481868 -359.1875 336.875 C-363.95560029 333.69626648 -366.55455251 330.81148647 -367.9375 325.1875 C-368.48726205 316.13360624 -365.04777818 309.31015587 -360 302 C-359.55785156 301.35933594 -359.11570312 300.71867187 -358.66015625 300.05859375 C-350.66962741 289.70564768 -337.60056609 284.74596079 -325 283 C-309.52364498 281.8437206 -293.80743258 285.60387113 -281.69921875 295.62109375 C-278.65805997 298.2822244 -275.82304673 301.10943645 -273 304 C-272.00033203 304.96873047 -272.00033203 304.96873047 -270.98046875 305.95703125 C-257.31398374 320.11711392 -253.39438032 340.31005221 -249.80615234 358.89501953 C-247.3530183 375.78323899 -247.3530183 375.78323899 -237.5 388.75 C-232.93454063 391.03272968 -229.12589097 391.37809522 -224 391 C-221.10159455 389.33575487 -221.10159455 389.33575487 -218.5625 386.9375 C-217.16257812 385.71546875 -217.16257812 385.71546875 -215.734375 384.46875 C-214.38085938 383.24671875 -214.38085938 383.24671875 -213 382 C-211.43847252 380.644712 -209.87609716 379.29039967 -208.3125 377.9375 C-207.2066744 376.96020724 -206.10179789 375.98183135 -205 375 C-206.43911048 371.88898176 -208.1984885 369.30246919 -210.25 366.5625 C-216.74934782 357.39014275 -222.21643274 346.5755432 -222.07275391 335.15307617 C-222.04894238 330.44349596 -222.06907219 326.35935481 -224.81640625 322.34765625 C-226.36563214 320.89804218 -227.95729788 319.49259733 -229.5859375 318.1328125 C-233.74584033 314.45755855 -236.28240757 309.78813905 -239 305 C-239.46277344 304.18660156 -239.92554688 303.37320312 -240.40234375 302.53515625 C-246.2686606 291.53358332 -249.18958609 280.07350543 -249.0625 267.6875 C-249.05798828 266.85154297 -249.05347656 266.01558594 -249.04882812 265.15429688 C-249.03710548 263.10283351 -249.01917203 261.05140727 -249 259 C-249.94230469 258.70351563 -250.88460937 258.40703125 -251.85546875 258.1015625 C-255.38316481 256.86577332 -256.83974885 256.04035348 -259 253 C-260.13197314 248.32117767 -260.42171051 246.13861837 -258.75 241.625 C-257 239 -257 239 -254 237 C-252.9275 237.04125 -251.855 237.0825 -250.75 237.125 C-246.20194696 235.76058409 -245.52394915 234.54216909 -243 230.625 C-239.56375859 224.10613487 -239.65659633 220.03274917 -241 213 C-242.64019121 203.4186252 -243.35560508 194.09202682 -243.3125 184.375 C-243.30831055 183.06974365 -243.30412109 181.7644873 -243.29980469 180.41967773 C-242.96507769 151.52098644 -234.67601964 124.32779088 -221 99 C-220.47019531 98.00097656 -219.94039062 97.00195312 -219.39453125 95.97265625 C-212.1893352 83.00330336 -203.17426358 70.7845408 -192.92578125 60.06640625 C-190.85144289 57.95209557 -190.85144289 57.95209557 -189 55 C-188.34 55 -187.68 55 -187 55 C-186.60361328 54.1028125 -186.60361328 54.1028125 -186.19921875 53.1875 C-184.04071814 49.2501699 -180.42956798 46.82166819 -177 44 C-176.47712402 43.56091309 -175.95424805 43.12182617 -175.41552734 42.66943359 C-149.45787713 20.90636242 -119.16682703 5.97537508 -86 -1 C-85.28279785 -1.16371094 -84.5655957 -1.32742187 -83.82666016 -1.49609375 C-57.26578011 -7.4189069 -26.40607035 -5.77988986 0 0 Z M-154 50 C-154.93714844 50.72703125 -155.87429688 51.4540625 -156.83984375 52.203125 C-168.04070542 61.13810217 -178.29888987 70.58079816 -187 82 C-187.74894531 82.95648438 -188.49789062 83.91296875 -189.26953125 84.8984375 C-201.96980607 101.38499527 -211.28951027 119.36808377 -218 139 C-218.38027344 140.05703125 -218.76054687 141.1140625 -219.15234375 142.203125 C-225.77204062 162.48687542 -227.75213389 187.31125507 -222 208 C-221.443125 207.80664062 -220.88625 207.61328125 -220.3125 207.4140625 C-219.549375 207.15367187 -218.78625 206.89328125 -218 206.625 C-217.2575 206.36976563 -216.515 206.11453125 -215.75 205.8515625 C-197.93347195 200.33451262 -177.60095912 201.07196642 -160.75 209.25 C-145.41918617 217.38229216 -136.00705929 228.36366834 -129 244 C-128.21238281 243.7834375 -127.42476563 243.566875 -126.61328125 243.34375 C-114.53116473 240.25530365 -104.72869159 239.89336881 -92.875 244.02734375 C-90.2508753 244.91512507 -87.72486911 245.5241497 -85 246 C-84.38125 244.65808594 -84.38125 244.65808594 -83.75 243.2890625 C-75.62515618 226.09950743 -63.62286435 212.73779389 -45.5625 205.75 C-27.07971413 199.55465278 -7.74269418 200.60300417 10.1015625 208.47265625 C15.73724959 211.44240511 21.24104184 215.14502241 25.68359375 219.7421875 C26.93755167 221.23027762 26.93755167 221.23027762 29 221 C29.23847656 221.53882813 29.47695313 222.07765625 29.72265625 222.6328125 C31.93438301 226.73160887 34.95900361 230.2585516 37.80859375 233.9296875 C39.89768185 236.85664516 41.48865318 239.74404382 43 243 C49.68535411 240.87942027 56.16531907 238.38916635 62.6484375 235.71875 C64.15320396 235.1033989 64.15320396 235.1033989 65.68836975 234.47561646 C70.02533959 232.70091715 74.3588866 230.91793065 78.69265747 229.13543701 C82.00184042 227.77446598 85.31134906 226.41429185 88.62109375 225.0546875 C89.6982515 224.61192474 90.77540924 224.16916199 91.88520813 223.71298218 C97.9531532 221.22567516 104.03770597 218.79501649 110.16015625 216.4453125 C111.43520272 215.95024082 112.71011297 215.45481812 113.98486328 214.95898438 C116.21969767 214.09551845 118.46129236 213.24926836 120.71044922 212.42382812 C126.1794217 210.43700815 126.1794217 210.43700815 129.62109375 206.01171875 C129.74613281 205.01785156 129.87117188 204.02398437 130 203 C130.13664062 202.20980469 130.27328125 201.41960937 130.4140625 200.60546875 C134.41085716 154.7903596 121.14852348 110.18149197 91.85961914 74.6862793 C75.68320616 55.44673809 55.58918659 41.69925421 33 31 C31.87851562 30.46246094 30.75703125 29.92492187 29.6015625 29.37109375 C6.96542878 19.07461012 -17.67928443 14.81197631 -42.40185547 14.81469727 C-44.6001362 14.81252457 -46.79790215 14.7943448 -48.99609375 14.77539062 C-86.87480343 14.62130972 -124.07427821 26.60978067 -154 50 Z M-221.87890625 231.2265625 C-232.25286883 245.21733458 -232.59070833 262.74896184 -230.57421875 279.546875 C-227.55150282 293.26963443 -220.14085622 306.19758251 -208.5625 314.3125 C-196.43139766 321.81134922 -183.7966045 324.8710778 -169.73828125 321.83203125 C-164.54560188 320.25422711 -159.55617239 317.94987768 -155 315 C-154.505 313.515 -154.505 313.515 -154 312 C-153.01 311.67 -152.02 311.34 -151 311 C-142.50085144 301.035481 -139.40420179 285.6612168 -139.75390625 272.88671875 C-141.28257166 254.95523082 -146.29851435 241.01063058 -160.37890625 228.96484375 C-170.1758349 221.55817698 -179.55441962 219.65286518 -191.625 219.5 C-192.59074951 219.48138916 -193.55649902 219.46277832 -194.55151367 219.44360352 C-204.99242405 219.53532324 -215.02528748 223.10481053 -221.87890625 231.2265625 Z M-56 231 C-56.90298828 231.75023437 -56.90298828 231.75023437 -57.82421875 232.515625 C-66.70593389 240.45329667 -71.4191641 252.86739275 -72.1640625 264.57958984 C-72.9108413 282.86633572 -71.35913123 298.16073964 -59.3125 312.75 C-49.87114637 322.7836819 -37.01886559 328.44458314 -23.3359375 329.203125 C-7.48311277 329.39073239 5.065604 326.2638806 16.9296875 315.2265625 C27.32156278 304.05039475 31.59199443 287.61570743 31.18359375 272.625 C30.16003159 257.99023884 25.88920113 246.06249618 16 235 C10.32288912 230.06769959 4.01654486 225.77180303 -3 223 C-3.73734375 222.70222656 -4.4746875 222.40445313 -5.234375 222.09765625 C-22.19302888 216.38332723 -42.58869666 218.76937573 -56 231 Z M122 231 C106.91925141 237.27891308 91.93074011 243.74847429 77 250.375 C76.22773071 250.71684326 75.45546143 251.05868652 74.65979004 251.41088867 C66.34536767 255.09390586 58.0738482 258.80685587 50 263 C49.96261719 264.20914063 49.92523437 265.41828125 49.88671875 266.6640625 C49.5084832 276.76865113 48.66670674 286.20613085 46 296 C45.58427734 297.53720703 45.58427734 297.53720703 45.16015625 299.10546875 C40.27362496 315.31700819 30.42269325 328.18087774 16 337 C15.37867188 337.38800781 14.75734375 337.77601563 14.1171875 338.17578125 C-0.9742096 346.63610993 -20.46550544 347.41611275 -37 343.4375 C-54.89707965 337.80031412 -70.91848226 327.2393747 -80.0078125 310.421875 C-85.9211005 298.76636955 -88.44954214 287.2397153 -88.35888672 274.1784668 C-88.43315209 270.029233 -88.62726065 268.46294853 -91.32421875 265.11328125 C-99.19868796 258.89417491 -105.93582617 257.98424232 -116 259 C-118.92695092 259.74667115 -121.26382617 260.68663656 -124 262 C-123.97679687 263.00417969 -123.95359375 264.00835937 -123.9296875 265.04296875 C-123.78708324 273.89640712 -124.21895306 282.28761754 -126 291 C-126.17144531 291.886875 -126.34289062 292.77375 -126.51953125 293.6875 C-130.03401551 308.92448983 -138.12204466 322.65872284 -151.17578125 331.39453125 C-167.72010621 340.79939648 -185.06246086 340.77576319 -203 336 C-202.49595776 349.60914055 -192.09898044 359.33866241 -182.6875 368.1875 C-177.59696862 372.60048254 -171.89286021 375.78348047 -166 379 C-159.22352941 382.77647059 -159.22352941 382.77647059 -157 385 C-156.64564954 387.76393359 -156.68109936 389.4020613 -158 391.875 C-161.88066443 394.05787374 -166.31298546 392.45133831 -170.39453125 391.359375 C-177.35450068 389.29878563 -177.35450068 389.29878563 -180.47265625 387.85546875 C-183.12904778 386.73144888 -185.11019107 386.0885087 -188 386 C-192.2714918 387.93864983 -195.5097346 390.90666674 -199 394 C-200.14968424 394.96930905 -201.30214078 395.93533735 -202.45703125 396.8984375 C-205.46887158 399.42497313 -208.43763401 401.99642414 -211.39111328 404.59082031 C-212.79229493 405.81807683 -214.2056732 407.03138065 -215.62109375 408.2421875 C-220.90576603 412.84132758 -225.83326431 417.76649055 -230.6875 422.8125 C-231.32494141 423.45936768 -231.96238281 424.10623535 -232.61914062 424.77270508 C-233.4940918 425.69925903 -233.4940918 425.69925903 -234.38671875 426.64453125 C-234.91483154 427.19471924 -235.44294434 427.74490723 -235.98706055 428.31176758 C-237.2164722 429.96917624 -237.2164722 429.96917624 -236.75146484 432.04858398 C-235.75236066 434.64307383 -234.39899119 436.88673765 -232.9375 439.25 C-232.11572266 440.58804688 -232.11572266 440.58804688 -231.27734375 441.953125 C-230.85582031 442.62859375 -230.43429687 443.3040625 -230 444 C-226.02563516 443.39867766 -223.60928304 441.38193876 -220.4375 439 C-176.19694387 407.3905261 -107.78531285 400.80853536 -54.6875 400.5 C-53.28097672 400.48419891 -53.28097672 400.48419891 -51.84603882 400.46807861 C-49.17147026 400.44469164 -46.49879942 400.45121938 -43.82421875 400.46875 C-42.63904663 400.45689163 -42.63904663 400.45689163 -41.42993164 400.4447937 C-35.86290884 400.53751224 -32.60355012 401.84476192 -28 405 C-26.29296875 407.03515625 -26.29296875 407.03515625 -25.1875 409.0625 C-24.80980469 409.73410156 -24.43210937 410.40570313 -24.04296875 411.09765625 C-23.69878906 411.72542969 -23.35460937 412.35320312 -23 413 C-22.34 413.99 -21.68 414.98 -21 416 C-18.37784792 416.39800096 -18.37784792 416.39800096 -15.375 416.375 C-9.41045354 416.76881759 -5.25031407 417.65117076 -1 422 C2.38809748 429.23439134 3.02838353 437.70773958 4.13375854 445.54037476 C4.65533364 449.22734944 5.20462241 452.91023476 5.75 456.59375 C5.85747055 457.32373703 5.9649411 458.05372406 6.07566833 458.80583191 C9.00925005 478.66903133 12.98811122 498.33249915 17 518 C21.13531428 514.45928757 21.36451346 510.19959713 22 505 C22.20692246 501.11855632 22.19243669 497.26039109 22.125 493.375 C22.11597656 492.37082031 22.10695313 491.36664062 22.09765625 490.33203125 C22.07437746 487.88775874 22.04168487 485.44401592 22 483 C23.65 482.34 25.3 481.68 27 481 C34.26257041 490.26603811 35.90462767 503.50787818 35 515 C33.52434211 523.97900308 30.02929114 529.73369173 23.875 536.25 C13.31926488 542.67523007 1.12761366 543.9093978 -10.7578125 541.1171875 C-18.32666469 538.69065527 -25.60584822 535.52443431 -32.93408203 532.46240234 C-44.06999324 527.84781997 -55.37975586 524.3452004 -67.25 528.5625 C-74.33734547 531.78712825 -80.43412143 537.01682112 -84 544 C-84.41890218 547.21061788 -84.41890218 547.21061788 -84 550 C-83.67 550.33 -83.34 550.66 -83 551 C-80.83014501 550.85395207 -78.66364878 550.6571011 -76.5 550.4375 C-65.73958217 549.63155777 -58.765964 551.65376801 -50 558 C-45.19611749 562.43680174 -40.72789034 567.19402021 -36.26342773 571.96948242 C-25.28808603 583.64821619 -13.22352951 591.60029803 2 597 C3.00353516 597.36738281 3.00353516 597.36738281 4.02734375 597.7421875 C15.03927334 601.14121862 27.58585966 599.47342798 38 595 C45.69169929 590.6627061 51.29774714 586.1015072 53.72485352 577.40185547 C54.76123999 573.26109656 55.7148265 569.10332291 56.66210938 564.94140625 C58.33546605 557.88593406 60.6145646 552.21966641 64.18334961 545.90673828 C64.45284424 545.27751465 64.72233887 544.64829102 65 544 C64.67 543.34 64.34 542.68 64 542 C63.37570107 535.73330311 65.12691993 531.94183423 67.9375 526.5625 C73.07738333 516.24684747 77.05003006 505.61460756 80.97314453 494.78955078 C81.92704366 492.19819286 82.91835169 489.62643512 83.93359375 487.05859375 C84.22210205 486.32213623 84.51061035 485.58567871 84.80786133 484.8269043 C85.56677338 482.89799337 86.33383244 480.97229324 87.1015625 479.046875 C88.021568 475.92685635 88.3057947 474.89851291 87 472 C85.85744448 470.07674569 84.66229893 468.18445296 83.4375 466.3125 C75.59398017 453.92874764 66.466179 438.01371572 67 423 C69.1875 422.1875 69.1875 422.1875 72 422 C74.04259735 423.60095468 75.37885074 425.00919307 77 427 C77.55171875 427.64839844 78.1034375 428.29679688 78.671875 428.96484375 C85.2707304 436.94073303 91.09524118 445.50673218 97 454 C100.76100213 450.74587286 102.61134089 447.0775593 104.56640625 442.6015625 C104.88657211 441.88898285 105.20673798 441.1764032 105.53660583 440.44223022 C106.55386861 438.17356157 107.55851611 435.8995719 108.5625 433.625 C109.57275784 431.35885678 110.5855693 429.09387158 111.59910583 426.82919312 C112.22714949 425.42342867 112.85282864 424.01660458 113.47572327 422.60855103 C113.90648415 421.63756973 113.90648415 421.63756973 114.34594727 420.64697266 C114.61988312 420.02945129 114.89381897 419.41192993 115.17605591 418.7756958 C115.96731558 417.07043874 116.84732242 415.40722037 117.73022461 413.74755859 C119.635521 409.62485035 118.65635818 406.29010686 117.43945312 402.04418945 C116.96908071 399.85617377 117.0169155 398.14100926 117.21875 395.91796875 C118.10600136 387.34270149 118.10600136 387.34270149 115.31640625 379.578125 C112.96018903 377.86302755 110.52660461 376.44981726 108 375 C95.39648316 364.2923968 84.48456564 348.29750905 82.74609375 331.5546875 C81.91809207 313.2318115 92.5969822 295.73665622 101.40625 280.33813477 C112.27541189 261.35007281 112.27541189 261.35007281 120.8125 241.25 C121.06088623 240.55334229 121.30927246 239.85668457 121.56518555 239.13891602 C122.6573381 235.84501051 123.12504548 234.37513643 122 231 Z M186 291 C185.34 292.32 184.68 293.64 184 295 C190.46804449 299.26001483 197.1612896 302.63015268 204.1875 305.875 C205.25419922 306.38546875 206.32089844 306.8959375 207.41992188 307.421875 C208.45052734 307.89882813 209.48113281 308.37578125 210.54296875 308.8671875 C211.47133545 309.30144043 212.39970215 309.73569336 213.35620117 310.18310547 C216.34774015 311.10744654 218.02941868 310.87138844 221 310 C220.62984522 307.56010652 220.31456304 306.29740506 218.49609375 304.578125 C210.99339607 299.73767488 203.02415674 295.88684587 195 292 C194.34 291.67 193.68 291.34 193 291 C190.6670134 290.95977609 188.33293334 290.95679753 186 291 Z M-343 309 C-345.32373292 311.84321014 -347.24009314 314.78065818 -349 318 C-348.67 318.66 -348.34 319.32 -348 320 C-347.21625 319.67 -346.4325 319.34 -345.625 319 C-336.84193407 316.57708526 -329.09342319 317.9350873 -321 322 C-312.59206415 327.21321066 -308.66885852 335.5336369 -305.8515625 344.76171875 C-304.7508602 349.46233216 -304.69876416 354.06615077 -304.75 358.875 C-304.75386719 359.75542969 -304.75773437 360.63585937 -304.76171875 361.54296875 C-304.83295008 366.88531841 -305.18896244 371.93608033 -306.5625 377.125 C-307.15148641 379.32833327 -307.15148641 379.32833327 -307 383 C-306.44763672 383.25056152 -305.89527344 383.50112305 -305.32617188 383.75927734 C-267.89438125 400.85478238 -267.89438125 400.85478238 -254.890625 415.3515625 C-253.16848566 417.22978237 -253.16848566 417.22978237 -251.015625 416.94140625 C-248.67001079 415.84587713 -246.78795771 414.53390021 -244.75 412.9375 C-243.69039062 412.11572266 -243.69039062 412.11572266 -242.609375 411.27734375 C-242.07828125 410.85582031 -241.5471875 410.43429687 -241 410 C-242.1994352 406.40169439 -243.10046488 406.05435099 -246.25 404.125 C-257.79967008 396.64417104 -262.65470363 386.55979145 -265.53222656 373.34326172 C-266.45805532 368.70542016 -267.22110392 364.03933708 -268 359.375 C-271.30957718 339.58155197 -277.09121057 321.66831504 -293.58203125 309.01953125 C-308.384212 299.5787703 -328.827881 297.20226743 -343 309 Z M140 373 C135.82248541 379.04593884 133.13203791 384.60587679 133 392 C133.33 392.99 133.66 393.98 134 395 C134.75023437 394.7834375 135.50046875 394.566875 136.2734375 394.34375 C147.1960647 391.37235519 155.76496017 390.45133372 166 396 C168.5 398.25 168.5 398.25 170 400 C170.66 400 171.32 400 172 400 C173.42175092 402.80524845 174.77109884 405.63240199 176.0625 408.5 C176.40410156 409.2528125 176.74570312 410.005625 177.09765625 410.78125 C180.01549477 417.9558486 180.24833432 426.49024896 177.5 433.75 C177.005 434.8225 176.51 435.895 176 437 C173.625 436.8125 173.625 436.8125 171 436 C169.6875 433.4375 169.6875 433.4375 169 431 C166.51200545 433.24107047 165.16789875 435.36477581 163.765625 438.39453125 C163.15726807 439.69318115 163.15726807 439.69318115 162.53662109 441.01806641 C162.11203613 441.94022949 161.68745117 442.86239258 161.25 443.8125 C160.35277368 445.73363904 159.4543347 447.65421219 158.5546875 449.57421875 C158.11737305 450.50927246 157.68005859 451.44432617 157.22949219 452.40771484 C155.67607277 455.68297446 154.03424039 458.90209758 152.375 462.125 C147.2054544 472.36585755 142.45618147 483.05250133 139 494 C140.15607151 495.39038487 140.15607151 495.39038487 143.32421875 495.01953125 C161.19985374 494.31799532 177.93825656 489.54023952 191.2109375 476.9453125 C207.00656955 459.77014927 214.14469935 438.33385414 214.25 415.3125 C214.270625 414.20455078 214.29125 413.09660156 214.3125 411.95507812 C214.38403092 396.65640186 210.17849561 383.48170255 200 372 C191.26524848 363.26524848 180.1871607 359.65572824 168.11547852 359.6171875 C156.69646233 359.83553738 147.46858792 364.29156744 140 373 Z M-338 385 C-339.7143618 386.95927063 -341.38405168 388.95880212 -343 391 C-338.55852272 393.79434175 -334.0998189 396.5545081 -329.609375 399.26953125 C-328.65160156 399.84896484 -327.69382812 400.42839844 -326.70703125 401.02539062 C-324.75230874 402.20674538 -322.79659539 403.38646238 -320.83984375 404.56445312 C-313.75940511 408.85347385 -306.864412 413.37476617 -300 418 C-298.0829601 419.27613603 -296.16499851 420.55088861 -294.24609375 421.82421875 C-255.39414195 447.6506225 -255.39414195 447.6506225 -245.1796875 456.59375 C-242.07883852 459.44157188 -242.07883852 459.44157188 -238 460 C-243.66095719 437.35617123 -262.63033622 421.43934659 -281.66796875 409.69921875 C-308.50385855 393.03839273 -308.50385855 393.03839273 -338 385 Z M-353 403 C-351.63474922 408.05414029 -348.56334828 410.21826468 -344.4375 413.0625 C-343.77564697 413.53292725 -343.11379395 414.00335449 -342.43188477 414.48803711 C-340.29544457 416.00300376 -338.14795939 417.50142368 -336 419 C-334.57204868 420.00918964 -333.14496218 421.01960407 -331.71875 422.03125 C-328.85846669 424.05826356 -325.99367427 426.07863032 -323.125 428.09375 C-319.95217605 430.32473382 -316.79378951 432.57467022 -313.64355469 434.83740234 C-292.26400327 450.78124832 -292.26400327 450.78124832 -269.390625 464.28833008 C-266.28277878 466.51352512 -265.98565176 468.01190402 -265.10546875 471.69921875 C-264.79794678 472.93889404 -264.4904248 474.17856934 -264.17358398 475.45581055 C-263.84479021 476.8663506 -263.51609987 478.27691476 -263.1875 479.6875 C-262.82115116 481.19166517 -262.45265636 482.69530893 -262.08227539 484.19848633 C-261.22090106 487.70440202 -260.37065184 491.21282241 -259.52539062 494.72265625 C-257.77236048 501.97140368 -255.95694906 509.20442126 -254.140625 516.4375 C-253.79351024 517.82045676 -253.44640849 519.20341679 -253.09931946 520.58638 C-252.57152492 522.68927239 -252.04371011 524.79215964 -251.51577473 526.89501667 C-250.15329093 532.32340541 -248.79514572 537.75286654 -247.44203854 543.18360043 C-246.62492524 546.46304501 -245.80532309 549.74181604 -244.97953796 553.01908875 C-243.42220912 559.21165834 -241.89370955 565.40776888 -240.45341015 571.62875271 C-239.77167854 574.56526446 -239.07488748 577.49811181 -238.37683296 580.43078041 C-238.04945944 581.82462437 -237.7293364 583.22019477 -237.41712761 584.61751366 C-235.64079761 592.55844525 -234.15661857 598.4534639 -228 604 C-227.34 604 -226.68 604 -226 604 C-229.0104769 590.08837979 -232.30658801 576.25092342 -235.65863037 562.4180603 C-236.57915495 558.61875968 -237.49704203 554.81882878 -238.41455078 551.01879883 C-241.36818479 538.7969197 -244.34237251 526.58044348 -247.36328125 514.375 C-247.87885452 512.28687256 -248.39439898 510.198738 -248.90991211 508.1105957 C-249.86632872 504.2376506 -250.83048592 500.3667434 -251.79907227 496.49682617 C-252.22828882 494.76227171 -252.65725913 493.0276563 -253.0859375 491.29296875 C-253.28210159 490.51860474 -253.47826569 489.74424072 -253.68037415 488.94641113 C-254.59284615 485.22753881 -255.23152655 481.83530821 -255 478 C-253.02 478 -251.04 478 -249 478 C-250.2684375 476.5459375 -250.2684375 476.5459375 -251.5625 475.0625 C-253.32589753 473.02844145 -254.99989959 471.00013987 -256.5703125 468.8125 C-265.79179688 455.98260869 -281.73498774 448.15639232 -294.75 439.625 C-298.59952774 437.09722059 -302.44815712 434.56807474 -306.296875 432.0390625 C-307.22493454 431.42963303 -308.15299408 430.82020355 -309.10917664 430.19230652 C-315.7121616 425.85413676 -322.29367818 421.48493281 -328.86279297 417.09570312 C-332.95977798 414.35885337 -337.06422162 411.63456228 -341.1875 408.9375 C-341.89712891 408.46634766 -342.60675781 407.99519531 -343.33789062 407.50976562 C-344.02431641 407.06181641 -344.71074219 406.61386719 -345.41796875 406.15234375 C-346.31165161 405.5644104 -346.31165161 405.5644104 -347.22338867 404.96459961 C-349.12947576 403.92970197 -350.88267404 403.43568893 -353 403 Z M-223.3046875 457.0546875 C-225.32850143 458.94688186 -225.32850143 458.94688186 -225 462 C-216.39711575 460.36421173 -216.39711575 460.36421173 -208.875 456.125 C-204.89501602 453.221881 -200.84114587 451.86521339 -196.1328125 450.62109375 C-195.3476123 450.40908829 -194.56241211 450.19708282 -193.75341797 449.97865295 C-183.58044258 447.28699947 -173.29621601 445.09837464 -163 442.9375 C-161.36473862 442.5920816 -161.36473862 442.5920816 -159.69644165 442.23968506 C-139.7527969 438.04066543 -119.73914203 434.2654706 -99.6875 430.625 C-99.00465942 430.50076031 -98.32181885 430.37652061 -97.61828613 430.24851608 C-77.45070531 426.58025282 -57.24724791 423.19517794 -37 420 C-36.67 418.35 -36.34 416.7 -36 415 C-39.05349725 413.47325137 -42.2432058 413.83756133 -45.59375 413.83203125 C-46.36355194 413.82775116 -47.13335388 413.82347107 -47.92648315 413.81906128 C-50.45104654 413.80898161 -52.97542006 413.80902964 -55.5 413.8125 C-56.36345032 413.81343658 -57.22690063 413.81437317 -58.11651611 413.81533813 C-111.79102598 413.94167356 -181.65815834 419.69333176 -223.3046875 457.0546875 Z M269 423 C269.81540343 425.19143379 269.81540343 425.19143379 272.0390625 425.7890625 C273.31910156 426.20285156 273.31910156 426.20285156 274.625 426.625 C281.51285054 429.28554313 285.84225017 433.94728508 288.9375 440.625 C292.14712965 450.73234307 290.37584529 461.20502935 285.78125 470.453125 C277.99150193 484.56122428 265.54952387 492.99604617 250.48828125 498 C235.27853391 502.36024112 219.15227856 502.22588425 204.3125 496.3125 C201.0561414 495.02224471 199.42024408 494.66849942 196 495 C193.9699453 496.07523618 193.9699453 496.07523618 192.0625 497.625 C183.03408656 503.94190973 172.97816036 507.32540617 162.32983398 509.70751953 C158.96715952 510.46158153 155.99460683 511.26708031 153 513 C153.89460937 513.84820313 154.78921875 514.69640625 155.7109375 515.5703125 C164.33843653 523.89032751 172.46744425 532.59711256 178.203125 543.23046875 C181.20681994 546.18845529 185.04339005 546.72917676 189.0625 547.6875 C189.92286865 547.90172607 190.7832373 548.11595215 191.66967773 548.33666992 C197.4325391 549.73090178 203.05719104 550.84954914 209 551 C210.11568359 551.05800781 210.11568359 551.05800781 211.25390625 551.1171875 C235.69825644 551.84206115 259.02829249 543.19656166 278 528 C278.63035156 527.52175781 279.26070312 527.04351563 279.91015625 526.55078125 C295.64065796 514.04521155 307.44612605 492.88092643 310 473 C311.03002248 458.33989166 311.52192796 443.61802059 301.6171875 431.7421875 C301.08351563 431.16726563 300.54984375 430.59234375 300 430 C299.48695313 429.44570313 298.97390625 428.89140625 298.4453125 428.3203125 C292.84463338 422.93401344 285.82653255 420.43911029 278.1875 419.5625 C274.60949072 420.05359931 272.10305598 421.18357698 269 423 Z M-32.6640625 436.25 C-33.43054611 436.38331726 -34.19702972 436.51663452 -34.98674011 436.6539917 C-37.53355131 437.09863393 -40.07931546 437.54895475 -42.625 438 C-43.51399994 438.15650024 -44.40299988 438.31300049 -45.31893921 438.47424316 C-60.20592798 441.09665864 -75.06078543 443.87256855 -89.90429688 446.72973633 C-100.57156065 448.78178991 -111.24492671 450.7971188 -121.92578125 452.77734375 C-123.86983604 453.13806473 -123.86983604 453.13806473 -125.85316467 453.506073 C-131.02709893 454.4658276 -136.20113377 455.42500735 -141.37612915 456.37902832 C-157.63114043 459.37594423 -173.83583125 462.54481289 -190 466 C-189.34 467.65 -188.68 469.3 -188 471 C-168.4723353 467.63975551 -149.01834591 463.91666371 -129.56420898 460.15795898 C-127.26937682 459.71463785 -124.97453617 459.27136068 -122.6796875 458.828125 C-121.51262772 458.60270523 -120.34556793 458.37728546 -119.1431427 458.14503479 C-109.93415301 456.36838345 -100.72171124 454.6103416 -91.5078125 452.859375 C-90.8125905 452.72721651 -90.11736851 452.59505802 -89.40107918 452.45889473 C-83.2147601 451.28292312 -77.02837748 450.10728808 -70.84140015 448.93478394 C-53.87452851 445.71855498 -36.92589579 442.42572362 -20 439 C-20.33 437.68 -20.66 436.36 -21 435 C-25.02036329 435 -28.72664973 435.55251687 -32.6640625 436.25 Z M-372.66796875 463.0859375 C-377.32884373 469.78338249 -376.79449267 478.17424719 -376 486 C-373.72832349 495.75788318 -367.02821158 505.98228394 -359 512 C-354.48467993 514.63251432 -349.75117114 516.83198987 -345 519 C-346.23041759 509.21916054 -346.23041759 509.21916054 -351.75 501.4375 C-352.86375 500.2309375 -352.86375 500.2309375 -354 499 C-353.8125 495.1875 -353.8125 495.1875 -353 492 C-348.58512289 490.56814796 -345.95485708 491.24613644 -341.8125 492.9375 C-336.14665248 495.15591506 -331.04774205 496.00795701 -325 495 C-321.99802536 493.19881522 -320.54833634 492.09667268 -319 489 C-318.16374316 483.14620209 -319.70377438 479.91952655 -323.05078125 475.32421875 C-329.69055928 467.40704855 -341.28414974 456.62555812 -352 455 C-361.73723854 454.24540029 -366.3019539 455.72890714 -372.66796875 463.0859375 Z M-217.625 477.5 C-223.28667892 478.7260224 -228.24411839 479.3944841 -234 479 C-235.28132812 478.92265625 -236.56265625 478.8453125 -237.8828125 478.765625 C-241.59036847 478.53458133 -245.29530592 478.27333711 -249 478 C-246.44144013 480.04000987 -244.14082409 481.51558419 -241.0625 482.625 C-240.41410156 482.86476563 -239.76570312 483.10453125 -239.09765625 483.3515625 C-233.73452642 485.00943876 -228.75312136 485.12314801 -223.1875 485.0625 C-222.39923828 485.05798828 -221.61097656 485.05347656 -220.79882812 485.04882812 C-218.86585239 485.03711312 -216.93291607 485.01917998 -215 485 C-210.80840938 501.41972966 -206.76710849 517.86460644 -202.97601318 534.38153076 C-196.90848615 560.81628017 -190.29168211 587.11000686 -183.65356445 613.40634155 C-182.76405977 616.93632444 -181.8812391 620.46794533 -181 624 C-178.36 624 -175.72 624 -173 624 C-176.27578953 607.96168551 -179.91255316 592.04430095 -183.84561157 576.15649414 C-187.20490273 562.56568971 -190.43353177 548.94621592 -193.61328125 535.3125 C-193.81575092 534.44458265 -194.0182206 533.57666531 -194.22682571 532.68244743 C-196.29463567 523.8160475 -198.35751595 514.94851125 -200.41452503 506.07959938 C-201.19480833 502.71732123 -201.97698581 499.35548542 -202.75951195 495.99372864 C-203.1290511 494.40376344 -203.49763254 492.81357533 -203.86522865 491.22315979 C-204.37217907 489.0298359 -204.88215792 486.83723704 -205.39282227 484.64477539 C-205.68020767 483.40498428 -205.96759308 482.16519318 -206.26368713 480.88783264 C-206.8699434 478.08314109 -206.8699434 478.08314109 -208 476 C-211.42581827 476 -214.28923569 476.71511428 -217.625 477.5 Z M126 514 C123.68299216 517.19817575 121.72966622 520.62661591 119.71508789 524.02197266 C118.71268506 525.70764793 117.6934549 527.3832807 116.67382812 529.05859375 C112.03697331 536.80961712 108.14912392 544.65715761 105.24707031 553.22216797 C104.5625 555.125 104.5625 555.125 103 558 C99.8125 559.4375 99.8125 559.4375 97 560 C96.67 562.31 96.34 564.62 96 567 C96.53367187 567.18062988 97.06734375 567.36125977 97.6171875 567.54736328 C100.0835047 568.39169289 102.54151045 569.2581548 105 570.125 C106.25876953 570.55039062 106.25876953 570.55039062 107.54296875 570.984375 C116.60908072 574.21725213 122.90126882 578.81112871 128 587 C130.10063198 593.30189595 129.70385135 599.25151778 127 605.3125 C122.77262707 612.81608694 117.06300696 614.77654889 109.0625 617.125 C107.93972656 617.41632813 106.81695313 617.70765625 105.66015625 618.0078125 C104.34337891 618.49894531 104.34337891 618.49894531 103 619 C102.67 619.99 102.34 620.98 102 622 C115.14491262 627.63353398 130.56224953 625.79149056 143.7421875 621.00390625 C154.38707153 616.21205035 163.4434147 607.44338951 167.9921875 596.64453125 C173.07570602 582.1928143 171.2426898 567.75421898 165 554 C156.95054294 537.83109061 143.03204303 523.84693958 128 514 C127.34 514 126.68 514 126 514 Z M73 554 C70.58057335 557.29297591 69.46191856 560.37756147 68.61328125 564.34375 C68.39736328 565.34277344 68.18144531 566.34179688 67.95898438 567.37109375 C67.74564453 568.40363281 67.53230469 569.43617188 67.3125 570.5 C66.97508789 572.04880859 66.97508789 572.04880859 66.63085938 573.62890625 C65.66583649 578.17536667 64.86696749 582.33492306 65 587 C65.43570312 586.62488281 65.87140625 586.24976563 66.3203125 585.86328125 C66.91585938 585.35152344 67.51140625 584.83976563 68.125 584.3125 C68.764375 583.75949219 69.40375 583.20648437 70.0625 582.63671875 C71.70728318 581.24727489 73.41077831 579.92780848 75.125 578.625 C79.64739913 574.49585297 82.65238673 570.52019623 83.5 564.375 C82.92430127 560.48903358 81.85540277 556.85540277 79 554 C76.08461971 553.49957854 76.08461971 553.49957854 73 554 Z " fill="#FFFFFF" transform="translate(554,96)"/>
<path d="M0 0 C7.97027062 4.30313422 14.64729662 11.36440783 17.55078125 19.9296875 C19.52066546 29.22896071 18.85025338 38.1273648 14.046875 46.40234375 C10.35537957 51.78367905 5.71692505 55.7918329 -0.5546875 57.8515625 C-9.10751484 59.40945455 -17.28715276 58.94181447 -24.69921875 54.2421875 C-32.18198214 48.94623568 -36.78115949 42.23912736 -38.69921875 33.2421875 C-39.81535683 23.39865645 -37.83868491 15.22839846 -32.57421875 6.8671875 C-23.56980614 -1.35423271 -11.54225375 -4.30528115 0 0 Z " fill="#FFFFFF" transform="translate(538.69921875,350.7578125)"/>
<path d="M0 0 C7.92428979 5.34145814 11.32209489 11.64206592 14.2890625 20.54296875 C15.14450883 29.63033302 14.1530828 38.02879655 8.81640625 45.64453125 C3.77545489 51.24558831 -3.16398948 54.5703316 -10.7109375 55.04296875 C-16.90849375 54.67840662 -22.6985565 52.18946229 -27.4609375 48.29296875 C-28.2034375 47.38546875 -28.9459375 46.47796875 -29.7109375 45.54296875 C-30.22527344 44.92035156 -30.73960937 44.29773438 -31.26953125 43.65625 C-38.04562942 35.12519116 -38.42566989 27.2524267 -37.7109375 16.54296875 C-36.56421989 9.94413014 -32.67539157 4.90859762 -27.7109375 0.54296875 C-18.911472 -5.36761563 -9.07175283 -5.14065994 0 0 Z " fill="#FFFFFF" transform="translate(391.7109375,351.45703125)"/>
<path d="M0 0 C5.49432949 0.21132036 8.61095787 1.80796936 13 5 C18.72765612 6.90921871 25.18364527 7.10947307 30.8359375 4.8828125 C32.498059 3.99934251 34.13852522 3.07297956 35.74609375 2.09375 C38.38715427 0.81212618 40.09832465 0.67921177 43 1 C45.49338007 3.16092939 45.95201061 4.47211669 46.25 7.75 C43.90355694 13.85075195 38.58054294 17.80898018 32.75 20.5 C23.00316654 21.79957779 13.04422765 22.32925648 4.7421875 16.3828125 C1.37109934 13.56753099 -1.36843936 11.15838788 -3 7 C-2.68097423 3.65022937 -2.40820361 2.40820361 0 0 Z " fill="#FFFFFF" transform="translate(431,436)"/>
</svg>
